<?xml version="1.0" encoding="utf-8"?>
<!-- Generator: Adobe Illustrator 23.0.1, SVG Export Plug-In . SVG Version: 6.00 Build 0)  -->
<svg version="1.1" id="Layer_1" xmlns="http://www.w3.org/2000/svg" xmlns:xlink="http://www.w3.org/1999/xlink" x="0px" y="0px"
	 viewBox="0 0 292 397" style="enable-background:new 0 0 292 397;" xml:space="preserve">
<style type="text/css">
	.st0{fill:#002A39;stroke:#F9EDEF;stroke-width:6;stroke-miterlimit:10;}
	.st1{fill:#A3BBC3;stroke:#F9EDEF;stroke-width:6;stroke-miterlimit:10;}
	.st2{fill:#53121B;stroke:#F9EDEF;stroke-width:6;stroke-miterlimit:10;}
	.st3{fill:#002A39;}
	.st4{fill:#FFFFFF;stroke:#FFFFFF;stroke-miterlimit:10;}
	.st5{opacity:0.25;fill:#FB7E12;stroke:#FB7E12;stroke-miterlimit:10;}
	.st6{opacity:0.5;fill:#FB7E12;stroke:#FB7E12;stroke-miterlimit:10;}
	.st7{fill:#FB7E12;stroke:#FB7E12;stroke-miterlimit:10;}
	.st8{opacity:0.75;fill:#FB7E12;stroke:#FB7E12;stroke-miterlimit:10;}
	.st9{fill:#A3BBC3;}
	.st10{fill:#009579;}
</style>
<polygon class="st0" points="283.5,131.9 283.5,44.7 243.8,44.7 243.8,88.5 237.6,81.7 170.3,7.9 103,81.7 95.3,90 56.6,132.4 
	56.6,172.1 56.6,268 283.6,268 283.6,172.1 283.6,132.1 "/>
<polygon class="st1" points="103.8,242.2 103.6,81 80.4,106.6 80.2,242.2 80.3,242.2 80.4,268.2 103.9,268 103.8,242.2 "/>
<polygon class="st2" points="56.6,268.2 80.3,268.1 80.2,106.6 56.6,133.8 "/>
<polygon class="st1" points="32.8,159.4 32.7,268.1 56.6,268.2 56.7,132.8 "/>
<polygon class="st0" points="32.9,159.9 9.3,187.7 9.3,231.9 9.2,231.9 9.2,393.7 32.7,394.1 32.8,253.8 32.9,253.8 "/>
<polygon class="st3" points="283.5,131.9 283.5,44.7 243.8,44.7 243.8,88.5 237.6,81.7 170.3,7.9 103,81.7 95.3,90 56.6,132.4 
	56.6,172.1 56.6,268 283.6,268 283.6,172.1 283.6,132.1 "/>
<rect x="159.2" y="98.3" transform="matrix(0.7071 -0.7071 0.7071 0.7071 -26.981 151.2794)" class="st4" width="19.9" height="19.9"/>
<rect x="179.2" y="78.2" transform="matrix(0.7071 -0.7071 0.7071 0.7071 -6.9215 159.5843)" class="st4" width="19.9" height="19.9"/>
<rect x="158.8" y="58.5" transform="matrix(0.7071 -0.7071 0.7071 0.7071 1.043 139.3522)" class="st4" width="19.9" height="19.9"/>
<rect x="139.4" y="77.9" transform="matrix(0.7071 -0.7071 0.7071 0.7071 -18.3442 131.3177)" class="st4" width="19.9" height="19.9"/>
<rect x="159.2" y="98.3" transform="matrix(0.7071 -0.7071 0.7071 0.7071 -26.981 151.2794)" class="st5" width="19.9" height="19.9"/>
<rect x="179.2" y="78.2" transform="matrix(0.7071 -0.7071 0.7071 0.7071 -6.9215 159.5843)" class="st6" width="19.9" height="19.9"/>
<rect x="158.8" y="58.5" transform="matrix(0.7071 -0.7071 0.7071 0.7071 1.043 139.3522)" class="st7" width="19.9" height="19.9"/>
<rect x="139.4" y="77.9" transform="matrix(0.7071 -0.7071 0.7071 0.7071 -18.3442 131.3177)" class="st8" width="19.9" height="19.9"/>
<polygon class="st9" points="103.8,242.2 103.6,81 80.4,106.6 80.2,242.2 80.3,242.2 80.4,268.2 103.9,268 103.8,242.2 "/>
<polygon class="st4" points="56.6,267.9 80.3,267.8 80.2,106.3 56.6,133.5 "/>
<polygon class="st6" points="56.6,267.9 80.3,267.8 80.2,106.3 56.6,133.5 "/>
<polygon class="st9" points="32.8,159.4 32.7,268.1 56.6,268.2 56.7,132.8 "/>
<polygon class="st3" points="32.9,159.9 9.3,187.6 9.3,231.5 9.2,231.6 9.2,392.6 32.7,392.9 32.8,253.4 32.9,253.4 "/>
<path class="st7" d="M43.1,282.9h21.1c8.7,0,15.2,1.2,19.3,3.7c4.2,2.5,6.3,6.1,6.3,11.1c0,7.5-4.5,13-13.5,16.3
	c11.1,1.7,16.6,6.7,16.6,15.2c0,5.6-2.2,10-6.7,13.4c-4.5,3.4-12.3,5-23.6,5l-20.9,0c-0.4-1.1-0.6-2.1-0.6-3c0-0.6,0.2-1.1,0.5-1.4
	c0.3-0.3,0.9-0.4,1.6-0.4h3.5c0.2-4.4,0.3-14,0.3-28.6c0-13.2-0.1-21.9-0.3-26.3h-5c-0.4-1.1-0.6-2.1-0.6-3c0-0.7,0.2-1.1,0.5-1.4
	C41.8,283,42.4,282.9,43.1,282.9z M57.5,310.8c1.8,0.3,3.9,0.4,6.1,0.4c5.2,0,8.9-0.9,11.2-2.7c2.3-1.8,3.4-4.5,3.4-8
	c0-3.7-1.1-6.4-3.4-8.1c-2.3-1.7-5.8-2.6-10.6-2.6c-2.3,0-4.4,0.2-6.5,0.5C57.6,294.3,57.5,301.1,57.5,310.8z M57.5,317.6v11.3
	c0,5.6,0.4,8.9,1.2,10c0.8,1.1,3.7,1.7,8.8,1.7c4.9,0,8.5-0.9,10.6-2.6c2.1-1.7,3.2-4.4,3.2-8.2c0-4.1-1.4-7.3-4.1-9.5
	c-2.7-2.2-6.8-3.3-12.4-3.3C62.1,317.1,59.7,317.3,57.5,317.6z"/>
<path class="st7" d="M123.7,339.8h3.7c8.8,0,15.8-1,21-3c0.9,1.6,1.4,3.2,1.4,4.9c0,1.3-0.4,2.2-1.2,2.8c-0.8,0.6-2.5,0.9-5.1,0.9
	l-34.5,0c-0.4-1-0.6-1.9-0.6-2.8c0-0.6,0.2-1,0.4-1.3c0.3-0.3,0.8-0.4,1.5-0.4h3.2c0.2-4,0.3-14.3,0.3-30.8c0-8.8-0.1-15.3-0.3-19.3
	h-4.5c-0.4-1-0.6-1.9-0.6-2.7c0-0.6,0.2-1,0.4-1.3c0.3-0.3,0.8-0.4,1.5-0.4H129c0.4,0.9,0.6,1.7,0.6,2.5c0,0.7-0.1,1.2-0.4,1.5
	c-0.3,0.3-0.8,0.4-1.6,0.4h-3.9c-0.2,4-0.3,10.6-0.3,19.8C123.4,326.8,123.5,336.5,123.7,339.8z"/>
<path class="st7" d="M174.6,345.4c-6.2,0-10.8-1.7-13.8-5s-4.4-8.3-4.4-15c0-7.7,1.8-13.7,5.3-17.9c3.6-4.3,8.7-6.4,15.4-6.4
	c6.2,0,10.8,1.7,13.8,5s4.4,8.3,4.4,15c0,7.7-1.8,13.6-5.3,17.9C186.5,343.2,181.3,345.4,174.6,345.4z M176.3,339.6
	c3.3,0,5.7-1.2,7.1-3.7s2.2-6.3,2.2-11.5c0-5.9-0.8-10.3-2.3-13.2c-1.5-2.9-4.1-4.3-7.8-4.3c-3.3,0-5.7,1.2-7.1,3.7
	c-1.5,2.5-2.2,6.3-2.2,11.5c0,5.9,0.8,10.3,2.3,13.2C170,338.1,172.6,339.6,176.3,339.6z"/>
<path class="st7" d="M232.7,307h-2.3c-0.3-0.8-0.5-1.7-0.5-2.5s0.2-1.5,0.5-1.8c0.3-0.3,0.9-0.5,1.6-0.5h11.3
	c0.4,0.8,0.6,1.7,0.6,2.6c0,0.9-0.2,1.5-0.6,1.8c-0.4,0.3-1,0.5-1.9,0.5h-0.7c-1.1,2.9-3.3,9.4-6.6,19.4c-3.4,10-5.5,15.6-6.5,17
	c-1,1.3-2.5,2-4.6,2c-3.4,0-5.3-0.2-5.5-0.5c-0.2-0.3-1.9-5.4-5.1-15.3c-3.1-9.9-5.1-15.7-5.8-17.6s-1.3-3.1-1.7-3.9
	c-0.5-0.8-1-1.3-1.6-1.5c-0.6-0.2-1.4-0.3-2.4-0.3c-0.4-0.9-0.6-1.8-0.6-2.6c0-0.9,0.4-1.4,1.4-1.7c0.9-0.3,3.4-0.4,7.5-0.4
	c1.8,0,3,0.1,3.7,0.4c0.7,0.3,1.2,0.8,1.6,1.5s0.8,2.4,1.3,5.1c0.5,2.7,2,8.2,4.4,16.5s3.7,12.5,4,12.5c0.3,0,1.7-4.4,4.2-13.1
	C230.9,315.9,232.3,310.1,232.7,307z"/>
<path class="st7" d="M267.3,300.4c5.4,0,9.3,1.3,11.9,3.8c2.6,2.5,3.9,6.7,3.9,12.5c0,2.6-0.5,4.4-1.4,5.4c-0.9,1-2.9,1.5-6,1.5
	h-19.1c0.1,4.7,1,8.4,2.8,11.1s5.1,4,9.7,4c4.3,0,8.3-1.1,12-3.4c1.2,1.2,1.9,2.5,1.9,3.9c0,1.9-1.6,3.3-4.8,4.1s-6.8,1.2-10.8,1.2
	c-7.4,0-12.7-1.6-15.9-4.7c-3.2-3.1-4.8-8.4-4.8-15.8c0-7.3,1.8-13,5.4-17.3C255.8,302.5,260.9,300.4,267.3,300.4z M265.7,306.2
	c-2.9,0-5.1,1-6.6,3.1s-2.3,5.3-2.5,9.6h4.5c4.7,0,7.9-0.1,9.6-0.3s2.7-0.5,3-0.9c0.3-0.4,0.4-1.2,0.4-2.4c0-2.9-0.7-5.1-2.2-6.7
	C270.5,307,268.4,306.2,265.7,306.2z"/>
<path class="st7" d="M45.5,361.9h-2.2c-0.2-0.4-0.2-0.8-0.2-1.2c0-0.3,0.1-0.5,0.2-0.6s0.3-0.2,0.6-0.2h7.5c4.7,0,7.8,0.6,9.4,1.7
	c1.6,1.1,2.4,3,2.4,5.6c0,2.7-1,4.8-2.9,6.3c-1.9,1.5-5.1,2.2-9.6,2.2h-0.9c0,3.8,0.1,6.4,0.2,7.7h2.8c0.2,0.4,0.2,0.7,0.2,1.1
	c0,0.3-0.1,0.5-0.2,0.6c-0.1,0.1-0.3,0.2-0.7,0.2h-8.9c-0.2-0.4-0.2-0.8-0.2-1.2c0-0.3,0.1-0.5,0.2-0.6c0.1-0.1,0.3-0.2,0.6-0.2h1.7
	c0.1-1.7,0.2-6.1,0.2-13.3C45.7,366.4,45.6,363.6,45.5,361.9z M51.3,373.5c2.7,0,4.6-0.4,5.7-1.2s1.6-2.1,1.6-4
	c0-1.8-0.5-3.2-1.5-4.1c-1-1-2.7-1.5-5.1-1.5c-0.8,0-1.5,0.1-2.1,0.2c-0.1,1.1-0.2,3.6-0.2,7.5v3H51.3z"/>
<path class="st7" d="M79.1,383.9c-1,0.6-2.1,1.1-3.2,1.4s-2.2,0.5-3.2,0.5c-1.7,0-2.9-0.4-3.7-1.2c-0.8-0.8-1.2-2-1.2-3.5
	c0-1.9,0.7-3.4,2-4.4c1.3-1,3.4-1.5,6.3-1.5h2.7c-0.1-2.2-0.4-3.7-0.9-4.6s-1.5-1.3-2.9-1.3c-0.8,0-1.5,0.1-2.1,0.2
	c-0.4,0.7-0.6,1.1-0.6,1.1c-0.1,0-0.4,0.2-1.1,0.3c-0.7,0.2-1.1,0.1-1.3-0.1s-0.5-0.6-0.8-1.3c-0.3-0.6-0.4-1.1-0.4-1.5
	c0-0.2,0.1-0.4,0.3-0.6s1-0.3,2.5-0.5c1.5-0.2,3-0.3,4.7-0.3c2.2,0,3.8,0.4,4.9,1.1s1.6,2.1,1.6,4.2v5.7c0,2.7,0.1,4.3,0.3,4.9
	c0.2,0.6,0.6,0.8,1.1,0.7c0.2,0.3,0.2,0.5,0.2,0.8c0,0.4-0.3,0.7-0.8,1c-0.5,0.2-1.2,0.3-2.1,0.3c-0.4,0-0.8,0-1-0.2
	C79.9,385.3,79.6,384.8,79.1,383.9z M78.7,377.6c-1.1-0.2-2.2-0.3-3.3-0.3c-1.4,0-2.4,0.2-3,0.7s-0.8,1.2-0.8,2.2
	c0,1,0.2,1.7,0.8,2.2s1.3,0.8,2.3,0.8c0.8,0,1.6-0.2,2.3-0.5s1.2-0.8,1.4-1.4s0.3-1.5,0.3-2.7V377.6z"/>
<path class="st7" d="M96.1,383.5h2c0.2,0.3,0.2,0.7,0.2,1c0,0.3-0.1,0.6-0.2,0.7s-0.4,0.2-0.8,0.2H90c-0.2-0.4-0.2-0.8-0.2-1.1
	c0-0.3,0.1-0.5,0.2-0.6c0.1-0.1,0.4-0.2,0.7-0.2h1.4c0.1-1.7,0.1-3.8,0.1-6.1c0-2.8,0-4.7-0.1-5.7s-0.2-1.6-0.3-2
	c-0.2-0.4-0.4-0.6-0.7-0.7c-0.3-0.1-0.7-0.1-1.1-0.1c-0.2-0.3-0.2-0.6-0.2-0.9c0-0.5,0.2-0.8,0.7-0.9s1.4-0.2,2.8-0.2
	c1,0,1.6,0,2,0.1s0.6,0.3,0.6,0.5c0.1,0.2,0.1,0.7,0.1,1.3v8.5C96,379.8,96.1,381.8,96.1,383.5z M93.5,363.8c-0.8,0-1.4-0.2-1.8-0.5
	c-0.4-0.3-0.6-0.8-0.6-1.5c0-0.7,0.3-1.2,0.7-1.6c0.5-0.4,1.2-0.6,2.1-0.6c0.9,0,1.5,0.2,1.9,0.5s0.6,0.8,0.6,1.4
	c0,0.7-0.2,1.2-0.7,1.6C95.2,363.6,94.5,363.8,93.5,363.8z"/>
<path class="st7" d="M109.9,369.2c1.2-0.8,2.4-1.4,3.6-1.8c1.2-0.4,2.3-0.6,3.2-0.6c1.7,0,2.9,0.4,3.7,1.1c0.8,0.8,1.3,2.2,1.3,4.4
	c0,6.7,0.1,10.2,0.3,10.6c0.2,0.4,0.6,0.6,1.3,0.6c0.1,0.4,0.2,0.7,0.2,1.1c0,0.3-0.1,0.6-0.3,0.7c-0.2,0.1-0.6,0.2-1.2,0.2
	c-1.7,0-2.8,0-3.2-0.1s-0.7-0.2-0.8-0.4c-0.1-0.2-0.2-0.6-0.2-1.1v-8c0-2.6-0.3-4.3-0.8-5.1s-1.4-1.3-2.6-1.3c-1,0-1.9,0.3-2.7,0.9
	c-0.8,0.6-1.1,1.6-1.1,3.1v3.9c0,2.2,0,4.2,0.1,6.1h2.1c0.2,0.3,0.2,0.7,0.2,1c0,0.3-0.1,0.6-0.2,0.7c-0.1,0.1-0.4,0.2-0.8,0.2h-7.3
	c-0.2-0.4-0.2-0.8-0.2-1.1c0-0.3,0.1-0.5,0.2-0.6c0.1-0.1,0.4-0.2,0.7-0.2h1.3c0.1-2,0.2-4.4,0.2-7.3c0-3.7-0.1-5.8-0.4-6.4
	c-0.3-0.6-0.8-0.9-1.6-0.9c-0.2-0.4-0.2-0.7-0.2-1.1c0-0.3,0.1-0.5,0.4-0.6c0.3-0.1,1.9-0.2,4.9-0.3
	C110,367.6,110,368.3,109.9,369.2z"/>
<path class="st7" d="M130.7,367.2h1.3l1.5-5.3c0.5,0.2,1,0.4,1.3,0.6c0.4,0.2,0.6,0.5,0.8,0.8c0.2,0.3,0.3,1.4,0.3,3.2v0.8h6.1
	c0.1,0.4,0.2,0.8,0.2,1.3c0,0.4-0.1,0.6-0.2,0.7c-0.1,0.1-0.4,0.2-0.8,0.2h-5.3v8.8c0,2.1,0.2,3.5,0.6,4.1c0.4,0.7,1,1,1.7,1
	c0.8,0,1.7-0.2,2.9-0.8c0.3,0.4,0.4,0.9,0.4,1.3c0,0.7-0.4,1.1-1.1,1.3s-1.9,0.3-3.4,0.3c-1.7,0-2.9-0.4-3.7-1
	c-0.8-0.7-1.2-2-1.2-3.9v-4.4c0-2.4-0.1-4.7-0.2-6.9h-1.8c-0.1-0.5-0.2-0.9-0.2-1.3c0-0.3,0.1-0.5,0.2-0.7
	C130.2,367.2,130.4,367.2,130.7,367.2z"/>
<path class="st7" d="M154,383.5h2c0.2,0.3,0.2,0.7,0.2,1c0,0.3-0.1,0.6-0.2,0.7s-0.4,0.2-0.8,0.2h-7.3c-0.1-0.4-0.2-0.8-0.2-1.1
	c0-0.3,0.1-0.5,0.2-0.6c0.1-0.1,0.4-0.2,0.7-0.2h1.4c0.1-1.7,0.1-3.8,0.1-6.1c0-2.8,0-4.7-0.1-5.7s-0.1-1.6-0.3-2s-0.4-0.6-0.7-0.7
	c-0.3-0.1-0.6-0.1-1.1-0.1c-0.2-0.3-0.2-0.6-0.2-0.9c0-0.5,0.2-0.8,0.7-0.9c0.5-0.1,1.4-0.2,2.8-0.2c1,0,1.6,0,2,0.1
	c0.4,0.1,0.6,0.3,0.6,0.5s0.1,0.7,0.1,1.3v8.5C153.9,379.8,153.9,381.8,154,383.5z M151.4,363.8c-0.8,0-1.4-0.2-1.8-0.5
	c-0.4-0.3-0.6-0.8-0.6-1.5c0-0.7,0.3-1.2,0.7-1.6c0.5-0.4,1.2-0.6,2.1-0.6c0.9,0,1.5,0.2,1.9,0.5s0.6,0.8,0.6,1.4
	c0,0.7-0.2,1.2-0.7,1.6C153.1,363.6,152.4,363.8,151.4,363.8z"/>
<path class="st7" d="M168.3,369.2c1.2-0.8,2.4-1.4,3.6-1.8c1.2-0.4,2.3-0.6,3.2-0.6c1.6,0,2.9,0.4,3.7,1.1c0.8,0.8,1.3,2.2,1.3,4.4
	c0,6.7,0.1,10.2,0.3,10.6c0.2,0.4,0.6,0.6,1.3,0.6c0.1,0.4,0.2,0.7,0.2,1.1c0,0.3-0.1,0.6-0.3,0.7c-0.2,0.1-0.6,0.2-1.2,0.2
	c-1.7,0-2.8,0-3.2-0.1s-0.6-0.2-0.8-0.4c-0.1-0.2-0.2-0.6-0.2-1.1v-8c0-2.6-0.3-4.3-0.8-5.1s-1.4-1.3-2.6-1.3c-1,0-1.9,0.3-2.7,0.9
	c-0.8,0.6-1.1,1.6-1.1,3.1v3.9c0,2.2,0,4.2,0.1,6.1h2.1c0.1,0.3,0.2,0.7,0.2,1c0,0.3-0.1,0.6-0.2,0.7s-0.4,0.2-0.8,0.2h-7.3
	c-0.2-0.4-0.2-0.8-0.2-1.1c0-0.3,0.1-0.5,0.2-0.6c0.1-0.1,0.4-0.2,0.7-0.2h1.3c0.1-2,0.1-4.4,0.1-7.3c0-3.7-0.1-5.8-0.4-6.4
	c-0.3-0.6-0.8-0.9-1.6-0.9c-0.2-0.4-0.2-0.7-0.2-1.1c0-0.3,0.1-0.5,0.4-0.6c0.3-0.1,1.9-0.2,4.9-0.3
	C168.4,367.6,168.4,368.3,168.3,369.2z"/>
<path class="st7" d="M202.5,368.9c0.7,1.2,1,2.6,1,4c0,2.1-0.7,3.8-2,5.1c-1.4,1.3-3.5,1.9-6.4,1.9c-1.3,0-2.1,0.1-2.5,0.4
	c-0.4,0.3-0.6,0.7-0.6,1.2c0,0.6,0.3,1.1,0.8,1.4s2.4,0.4,5.7,0.4c3.2,0,5.3,0.3,6.3,1c1,0.7,1.4,1.6,1.4,3c0,2-1,3.5-3.1,4.6
	c-2,1.1-5.2,1.7-9.5,1.7c-2.1,0-3.5-0.3-4.2-0.9s-1.1-1.4-1.1-2.4c0-0.8,0.2-1.5,0.6-2.3c0.4-0.8,0.9-1.5,1.7-2.3
	c-0.6-0.2-1.1-0.6-1.5-1.1c-0.4-0.5-0.6-1.1-0.6-1.8c0-0.7,0.2-1.4,0.7-2.1s1.2-1.2,2.2-1.6c-0.8-0.3-1.4-0.9-1.9-1.7
	c-0.5-0.8-0.7-1.9-0.7-3.3c0-2.2,0.7-4,2-5.4c1.3-1.4,3.4-2.1,6.1-2.1c1.5,0,2.9,0.2,4.1,0.7c1.6-0.7,2.6-1.1,2.9-1.1
	c1.5,0,2.3,0,2.5,0.1s0.2,0.2,0.2,0.4c0,0.3-0.1,0.8-0.4,1.4c-0.3,0.6-0.6,0.9-0.8,0.9s-1.1-0.3-2.5-0.8L202.5,368.9z M193.2,386
	c-0.4,0.4-0.8,0.9-1,1.5s-0.3,1.1-0.3,1.7c0,0.8,0.2,1.5,0.8,1.8s1.5,0.6,3.1,0.6c2.2,0,3.9-0.3,5.1-0.8s1.7-1.3,1.7-2.3
	c0-0.9-0.4-1.5-1.2-1.9C200.3,386.2,197.7,386,193.2,386z M196.2,368.8c-1.2,0-2.1,0.3-2.6,1c-0.6,0.7-0.9,1.9-0.9,3.6
	c0,1.5,0.3,2.6,0.8,3.3c0.6,0.7,1.4,1,2.6,1c1.2,0,2.2-0.3,2.8-0.9c0.6-0.6,0.9-1.8,0.9-3.5c0-1.5-0.3-2.6-0.9-3.4
	C198.3,369.2,197.4,368.8,196.2,368.8z"/>
<path class="st7" d="M212.5,381.5c0.8,0,1.5,0.2,1.9,0.5s0.6,0.9,0.6,1.7c0,1.3-0.6,2.8-1.7,4.5c-1.1,1.7-2.1,2.5-2.9,2.5
	c-0.6,0-1-0.3-1.2-1c1.3-1.2,2.2-2.5,2.8-4c-1.5-0.3-2.2-1-2.2-2.2c0-0.7,0.2-1.2,0.7-1.6S211.6,381.5,212.5,381.5z"/>
<path class="st10" d="M33,249"/>
<path class="st7" d="M235,383h1.9c0.2,0.3,0.2,0.6,0.2,1c0,0.3-0.1,0.5-0.2,0.7c-0.1,0.1-0.4,0.2-0.8,0.2H229
	c-0.1-0.4-0.2-0.8-0.2-1.1c0-0.3,0.1-0.5,0.2-0.6s0.4-0.2,0.7-0.2h1.3c0.1-1.7,0.1-3.7,0.1-5.9c0-2.8,0-4.6-0.1-5.5
	c0-0.9-0.1-1.6-0.3-1.9c-0.2-0.4-0.4-0.6-0.7-0.6c-0.3-0.1-0.6-0.1-1.1-0.1c-0.2-0.2-0.2-0.5-0.2-0.9c0-0.5,0.2-0.8,0.7-0.9
	c0.5-0.1,1.4-0.2,2.7-0.2c1,0,1.6,0,1.9,0.1c0.3,0.1,0.5,0.3,0.6,0.5s0.1,0.7,0.1,1.3v8.3C234.9,379.3,234.9,381.3,235,383z
	 M232.4,363.8c-0.8,0-1.4-0.2-1.7-0.5c-0.4-0.3-0.6-0.8-0.6-1.4c0-0.7,0.2-1.2,0.7-1.6c0.5-0.4,1.1-0.6,2-0.6c0.9,0,1.4,0.2,1.8,0.5
	c0.4,0.4,0.6,0.8,0.6,1.4c0,0.6-0.2,1.2-0.7,1.6C234.1,363.6,233.4,363.8,232.4,363.8z"/>
<path class="st7" d="M250.6,369c1.2-0.8,2.4-1.4,3.6-1.8s2.2-0.6,3.1-0.6c1.6,0,2.8,0.4,3.6,1.1c0.8,0.7,1.2,2.2,1.2,4.3
	c0,6.5,0.1,10,0.3,10.4s0.6,0.6,1.3,0.6c0.1,0.4,0.2,0.7,0.2,1c0,0.3-0.1,0.5-0.3,0.6s-0.6,0.2-1.1,0.2c-1.7,0-2.7,0-3.1-0.1
	s-0.6-0.2-0.8-0.4s-0.2-0.6-0.2-1.1v-7.8c0-2.5-0.3-4.1-0.8-5s-1.4-1.2-2.6-1.2c-1,0-1.9,0.3-2.6,0.9c-0.7,0.6-1.1,1.6-1.1,3.1v3.8
	c0,2.1,0,4.1,0.1,5.9h2c0.1,0.3,0.2,0.6,0.2,1c0,0.3-0.1,0.5-0.2,0.7c-0.1,0.1-0.4,0.2-0.8,0.2h-7.1c-0.2-0.4-0.2-0.8-0.2-1.1
	c0-0.3,0.1-0.5,0.2-0.6s0.4-0.2,0.6-0.2h1.2c0.1-1.9,0.1-4.3,0.1-7.1c0-3.6-0.1-5.6-0.4-6.2s-0.8-0.9-1.6-0.9
	c-0.2-0.3-0.2-0.7-0.2-1c0-0.3,0.1-0.5,0.4-0.6s1.9-0.2,4.8-0.3C250.7,367.4,250.7,368.1,250.6,369z"/>
<path class="st7" d="M280.9,385.2c-3,0-5.1-0.6-6.4-1.9c-1.3-1.2-1.9-3.4-1.9-6.4c0-3.4,0.8-5.9,2.4-7.7c1.6-1.8,4-2.6,7.2-2.6
	c1.6,0,2.7,0.1,3.5,0.5c0.7,0.3,1.1,0.7,1.1,1.3c0,0.7-0.2,1.4-0.8,2.1c-1.8-0.9-3.4-1.4-4.6-1.4c-1.7,0-2.9,0.5-3.6,1.6
	c-0.7,1.1-1.1,2.8-1.1,5c0,2.4,0.4,4.1,1,5.3s2,1.8,3.8,1.8c1.4,0,3-0.5,4.9-1.4c0.4,0.6,0.6,1.1,0.6,1.7c0,0.7-0.6,1.2-1.9,1.6
	C283.9,385,282.5,385.2,280.9,385.2z"/>
</svg>
